<?xml version="1.0" encoding="utf-8"?>
<!-- Generator: Adobe Illustrator 21.0.0, SVG Export Plug-In . SVG Version: 6.00 Build 0)  -->
<svg version="1.1" id="Layer_1" xmlns="http://www.w3.org/2000/svg" xmlns:xlink="http://www.w3.org/1999/xlink" x="0px" y="0px"
	 viewBox="0 0 16 16" enable-background="new 0 0 16 16" xml:space="preserve">
<path fill="#FFFFFF" d="M8,16c-1.1,0-2.1-0.2-3.1-0.6c-1-0.4-1.8-1-2.5-1.7c-0.7-0.7-1.3-1.6-1.7-2.5C0.2,10.1,0,9.1,0,8
	c0-1.1,0.2-2.2,0.6-3.1c0.4-1,1-1.8,1.7-2.5C3.8,0.8,5.9,0,8,0c1.1,0,2.1,0.2,3.1,0.6c1,0.4,1.8,1,2.5,1.7c1.5,1.5,2.3,3.4,2.3,5.5
	L16,8c0,1.1-0.2,2.1-0.6,3.1c-0.4,1-1,1.8-1.7,2.5C12.2,15.2,10.2,16,8,16z M5.4,10.5c0.2,0.8,0.4,1.6,0.8,2.3
	c0.5,1.1,1.2,1.7,1.9,1.7c0.6,0,1.3-0.6,1.8-1.7c0.3-0.7,0.6-1.5,0.7-2.3c-0.8,0.1-1.6,0.1-2.5,0.1H7.8C7,10.6,6.2,10.6,5.4,10.5z
	 M12.2,10.3c-0.2,1.1-0.5,2.2-1,3.2c0,0.1-0.1,0.1-0.1,0.2c0.5-0.3,1-0.7,1.4-1.1c0.8-0.8,1.4-1.8,1.6-2.8c-0.3,0.1-0.6,0.2-0.9,0.3
	C13,10.1,12.6,10.2,12.2,10.3z M1.8,9.8c0.3,1.1,0.9,2,1.7,2.8c0.4,0.4,0.9,0.8,1.4,1.1c0-0.1-0.1-0.1-0.1-0.2c-0.5-1-0.8-2.1-1-3.2
	C3.4,10.2,3,10.1,2.7,10C2.4,10,2.1,9.9,1.8,9.8z M5.2,8.9C6.1,9,7.1,9,8,9.1h0c1,0,1.9,0,2.8-0.1c0-0.3,0-0.6,0-0.9
	c0-1.6-0.3-3.3-1-4.8C9.3,2.2,8.6,1.5,8,1.5c-0.6,0-1.3,0.6-1.9,1.7c-0.7,1.5-1,3.1-1,4.8C5.2,8.3,5.2,8.6,5.2,8.9z M11.2,2.6
	C12,4.3,12.4,6.1,12.4,8c0,0.2,0,0.4,0,0.7l0.3-0.1c1.2-0.3,1.6-0.6,1.8-0.7c0-2.4-1.3-4.5-3.3-5.6C11.1,2.4,11.2,2.5,11.2,2.6z
	 M1.5,7.9C1.7,8,2.1,8.3,3.3,8.6l0.3,0.1c0-0.2,0-0.4,0-0.7c0-1.9,0.4-3.7,1.1-5.4c0-0.1,0.1-0.1,0.1-0.2C4.3,2.7,3.9,3,3.5,3.4
	C2.3,4.6,1.6,6.2,1.5,7.9z"/>
</svg>
